<?xml version="1.0" encoding="UTF-8"?>
<svg id="Layer_2" data-name="Layer 2" xmlns="http://www.w3.org/2000/svg" viewBox="0 0 32 32">
  <defs>
    <style>
      .cls-1 {
        fill: #2563eb;
      }

      .cls-1, .cls-2 {
        stroke-width: 0px;
      }

      .cls-2 {
        fill: #fff;
      }
    </style>
  </defs>
  <g id="Layer_1-2" data-name="Layer 1">
    <g>
      <circle class="cls-1" cx="16" cy="16" r="16"/>
      <g>
        <path class="cls-2" d="M19.56,20.9c-5.85,2.65-10.93.26-15.74-4.25.16,5.04,3.24,9.22,7.86,10.92,4.77,1.76,10.68.54,13.92-2.97l-1.5-2.37c-.96-1.52-2.9-2.08-4.55-1.33Z"/>
        <path class="cls-2" d="M14.8,11.72c-2.53-.1-4.51,1.68-4.42,4.43.09,2.48,2.23,4.38,4.67,4.16,2.59-.24,4.12-2.31,3.82-4.46-1.3-.19-2.79.03-3.42-.61-.64-.65-.44-2.13-.65-3.51Z"/>
        <path class="cls-2" d="M25.59,7.36c-.43.68-.86,1.36-1.31,2.07-1.04,1.64-3.11,2.26-4.88,1.49-5.66-2.45-10.71-.21-15.46,4.25-.08-4.51,2.94-8.79,7.28-10.56,1.78-.72,3.72-1.04,5.63-.96l1.82.19c2.65.45,5.13,1.64,6.92,3.52Z"/>
      </g>
    </g>
  </g>
</svg>